{
  "title": "Scary.MoVie.5.2013.RC BRRip XViD juggs",
  "uid": 8718533,
  "size": 736312739,
  "categoryP": "video",
  "categoryS": "movies",
  "magnet": "?xt=urn:btih:02988076cfd7a8b6dcd3904c46909f70a5270d84&amp;dn=Scary.MoVie.5.2013.RC+BRRip+XViD+juggs&amp;tr=udp%3A%2F%2Ftracker.openbittorrent.com%3A80&amp;tr=udp%3A%2F%2Fopen.demonii.com%3A1337&amp;tr=udp%3A%2F%2Ftracker.coppersurfer.tk%3A6969&amp;tr=udp%3A%2F%2Fexodus.desync.com%3A6969",
  "seeders": 55,
  "leechers": 8,
  "uploader": "juggs99",
  "files": 3,
  "time": 1374374554,
  "description": "Format                                   : AVI\nFormat/Info                              : Audio Video Interleave\nFile size                                : 697 MiB\nDuration                                 : 1h 25mn\nOverall bit rate                         : 1 137 Kbps\nWriting library                          : VirtualDub build 32842/release\n\nVideo\nID                                       : 0\nFormat                                   : MPEG-4 Visual\nFormat profile                           : Advanced Simple@L5\nFormat settings, BVOP                    : 2\nFormat settings, QPel                    : No\nFormat settings, GMC                     : No warppoints\nFormat settings, Matrix                  : Default (H.263)\nMuxing mode                              : Packed bitstream\nCodec ID                                 : XVID\nCodec ID/Hint                            : XviD\nDuration                                 : 1h 25mn\nBit rate                                 : 999 Kbps\nWidth                                    : 640 pixels\nHeight                                   : 352 pixels\nDisplay aspect ratio                     : 16:9\nFrame rate                               : 24.000 fps\nColor space                              : YUV\nChroma subsampling                       : 4:2:0\nBit depth                                : 8 bits\nScan type                                : Progressive\nCompression mode                         : Lossy\nBits/(Pixel*Frame)                       : 0.185\nStream size                              : 613 MiB (88%)\nWriting library                          : XviD 64\n\nAudio\nID                                       : 1\nFormat                                   : MPEG Audio\nFormat version                           : Version 1\nFormat profile                           : Layer 3\nCodec ID                                 : 55\nCodec ID/Hint                            : MP3\nDuration                                 : 1h 25mn\nBit rate mode                            : Constant\nBit rate                                 : 128 Kbps\nChannel(s)                               : 2 channels\nSampling rate                            : 48.0 KHz\nCompression mode                         : Lossy\nStream size                              : 78.5 MiB (11%)\nAlignment                                : Split accross interleaves\nInterleave, duration                     : 42 ms (1.00 video frame)\nInterleave, preload duration             : 500 ms\nWriting library                          : LAME3.99r\n &lt;a href=&quot;\nhttp://www.shotpix.com/photos/20130720137436661112199.png&quot; rel=&quot;nofollow&quot; target=&quot;_NEW&quot;&gt;\nhttp://www.shotpix.com/photos/20130720137436661112199.png&lt;/a&gt; &lt;a href=&quot;\nhttp://www.shotpix.com/photos/20130720137436661452628.png&quot; rel=&quot;nofollow&quot; target=&quot;_NEW&quot;&gt;\nhttp://www.shotpix.com/photos/20130720137436661452628.png&lt;/a&gt; &lt;a href=&quot;\nhttp://www.shotpix.com/photos/20130720137436661940430.png&quot; rel=&quot;nofollow&quot; target=&quot;_NEW&quot;&gt;\nhttp://www.shotpix.com/photos/20130720137436661940430.png&lt;/a&gt;",
  "parsed": {
    "xt": "urn:btih:02988076cfd7a8b6dcd3904c46909f70a5270d84",
    "dn": "Scary.MoVie.5.2013.RC BRRip XViD juggs",
    "tr": [
      "udp://exodus.desync.com:6969",
      "udp://open.demonii.com:1337",
      "udp://tracker.coppersurfer.tk:6969",
      "udp://tracker.openbittorrent.com:80"
    ],
    "infoHash": "02988076cfd7a8b6dcd3904c46909f70a5270d84",
    "infoHashBuffer": {
      "type": "Buffer",
      "data": [
        2,
        152,
        128,
        118,
        207,
        215,
        168,
        182,
        220,
        211,
        144,
        76,
        70,
        144,
        159,
        112,
        165,
        39,
        13,
        132
      ]
    },
    "name": "Scary.MoVie.5.2013.RC BRRip XViD juggs",
    "announce": [
      "udp://exodus.desync.com:6969",
      "udp://open.demonii.com:1337",
      "udp://tracker.coppersurfer.tk:6969",
      "udp://tracker.openbittorrent.com:80"
    ],
    "urlList": []
  },
  "previous": 63,
  "peers": 4,
  "last_updated": "2016-12-24T15:36:09.742Z"
}